<?xml version="1.0" standalone="no"?><!DOCTYPE svg PUBLIC "-//W3C//DTD SVG 1.1//EN" "http://www.w3.org/Graphics/SVG/1.1/DTD/svg11.dtd"><svg t="1734812235501" class="icon" viewBox="0 0 1024 1024" version="1.1" xmlns="http://www.w3.org/2000/svg" p-id="12752" xmlns:xlink="http://www.w3.org/1999/xlink" width="200" height="200"><path d="M516.9152 507.6992m-453.5808 0a453.5808 453.5808 0 1 0 907.1616 0 453.5808 453.5808 0 1 0-907.1616 0Z" fill="#73DDDE" p-id="12753"></path><path d="M970.496 507.6992a452.3008 452.3008 0 0 0-22.8864-142.5408l-219.7504-120.064s-440.32 33.6384-439.9104 34.7648 84.4288 90.0096 84.4288 90.0096l-137.216 132.6592 75.9808 107.264-28.2624 154.368 148.48 189.0304a453.7344 453.7344 0 0 0 539.0336-445.44z" fill="#4ACED1" p-id="12754"></path><path d="M801.9456 448.6144a60.0576 60.0576 0 0 1-2.048 47.7696 72.96 72.96 0 0 1-138.24-32.3072 73.0624 73.0624 0 0 1-146.1248 0 73.1136 73.1136 0 0 1-146.176 0 72.96 72.96 0 0 1-138.24 32.512 60.3648 60.3648 0 0 1-1.8944-48.3328l40.4992-107.9296a22.1184 22.1184 0 0 1 20.7872-14.4384h451.3792a22.272 22.272 0 0 1 20.8896 14.592zM715.9296 297.984H314.6752A28.1088 28.1088 0 0 1 286.72 270.08a26.9824 26.9824 0 0 1 27.904-26.5728h401.2544a28.0064 28.0064 0 0 1 27.9552 27.8528 26.9824 26.9824 0 0 1-27.904 26.5728zM305.3568 563.712a16.896 16.896 0 0 0 7.9872-1.3312h1.3312a5.12 5.12 0 0 0 3.9936-1.3312c5.12-1.3312 9.3184-2.6624 14.592-3.9936v135.5264h365.4144V557.056c5.12 1.3312 9.3184 2.6624 14.592 3.9936a5.12 5.12 0 0 1 3.9936 1.3312h1.3312c2.6624 0 5.12 1.3312 7.9872 1.3312h9.3184a87.6544 87.6544 0 0 0 18.5856-1.3312v184.6784a28.0576 28.0576 0 0 1-27.904 27.904H305.3568a28.0576 28.0576 0 0 1-27.904-27.904v-184.6784a81.92 81.92 0 0 0 18.6368 1.3312z" fill="#FFFFFF" p-id="12755"></path></svg>